HIERARCHY
ROOT hip
{
	OFFSET 0.000000 0.000000 0.000000
	CHANNELS 6 Xposition Yposition Zposition Xrotation Zrotation Yrotation 
	JOINT abdomen
	{
		OFFSET 0.000000 3.422050 0.000000
		CHANNELS 3 Xrotation Zrotation Yrotation 
		JOINT chest
		{
			OFFSET 0.000000 8.486693 -0.684411
			CHANNELS 3 Xrotation Zrotation Yrotation 
			JOINT neck
			{
				OFFSET 0.000000 10.266162 -0.273764
				CHANNELS 3 Xrotation Zrotation Yrotation 
				JOINT head
				{
					OFFSET 0.000000 3.148285 0.000000
					CHANNELS 3 Xrotation Zrotation Yrotation 
					End Site
					{
						OFFSET 0.000000 3.148289 0.000000
					}
				}
			}
			JOINT lCollar
			{
				OFFSET 3.422053 6.707223 -0.821293
				CHANNELS 3 Yrotation Zrotation Xrotation 
				JOINT lShldr
				{
					OFFSET 3.285171 0.000000 0.000000
					CHANNELS 3 Zrotation Yrotation Xrotation 
					JOINT lForeArm
					{
						OFFSET 10.129278 0.000000 0.000000
						CHANNELS 3 Yrotation Zrotation Xrotation 
						JOINT lHand
						{
							OFFSET 8.486692 0.000000 0.000000
							CHANNELS 3 Zrotation Yrotation Xrotation 
							End Site
							{
								OFFSET 4.106464 0.000000 0.000000
							}
						}
					}
				}
			}
			JOINT rCollar
			{
				OFFSET -3.558935 6.707223 -0.821293
				CHANNELS 3 Yrotation Zrotation Xrotation 
				JOINT rShldr
				{
					OFFSET -3.148289 0.000000 0.000000
					CHANNELS 3 Zrotation Yrotation Xrotation 
					JOINT rForeArm
					{
						OFFSET -10.266159 0.000000 0.000000
						CHANNELS 3 Yrotation Zrotation Xrotation 
						JOINT rHand
						{
							OFFSET -8.349810 0.000000 0.000000
							CHANNELS 3 Zrotation Yrotation Xrotation 
							End Site
							{
								OFFSET -4.106464 0.000000 0.000000
							}
						}
					}
				}
			}
		}
	}
	JOINT lThigh
	{
		OFFSET 5.338403 -1.642589 1.368821
		CHANNELS 3 Xrotation Zrotation Yrotation 
		JOINT lShin
		{
			OFFSET -2.053232 -20.121670 0.000000
			CHANNELS 3 Xrotation Zrotation Yrotation 
			JOINT lFoot
			{
				OFFSET 0.000000 -19.300380 -1.231939
				CHANNELS 3 Xrotation Yrotation Zrotation 
				End Site
				{
					OFFSET 0.000000 -2.463878 4.653993
				}
			}
		}
	}
	JOINT rThigh
	{
		OFFSET -5.338403 -1.642589 1.368821
		CHANNELS 3 Xrotation Zrotation Yrotation 
		JOINT rShin
		{
			OFFSET 2.053232 -20.121670 0.000000
			CHANNELS 3 Xrotation Zrotation Yrotation 
			JOINT rFoot
			{
				OFFSET 0.000000 -19.300380 -1.231939
				CHANNELS 3 Xrotation Yrotation Zrotation 
				End Site
				{
					OFFSET 0.000000 -2.463878 4.653993
				}
			}
		}
	}
}
MOTION
Frames: 20
Frame Time: 0.033333
0.000000 43.528500 0.000000 0.000000 0.000000 0.000000 0.000000 0.000000 0.000000 0.000000 0.000000 0.000000 0.000000 0.000000 0.000000 0.000000 0.000000 0.000000 0.000000 0.000000 0.000000 0.000000 0.000000 0.000000 0.000000 0.000000 0.000000 0.000000 0.000000 0.000000 0.000000 0.000000 0.000000 0.000000 0.000000 0.000000 0.000000 0.000000 0.000000 0.000000 0.000000 0.000000 0.000000 0.000000 0.000000 0.000000 0.000000 0.000000 0.000000 0.000000 0.000000 0.000000 0.000000 0.000000 0.000000 0.000000 0.000000 0.000000 0.000000 0.000000 
1.558935 23.983170 -5.716103 -18.000086 -0.000000 180.000000 2.695747 -0.574541 -0.186668 29.992144 -0.532977 -0.720234 -0.571778 0.000000 0.000000 -0.645222 0.000000 0.000000 6.220459 8.029584 -8.611965 -78.434402 -22.900282 7.422977 -58.595592 -18.282980 -8.832336 -0.301202 -8.688805 2.648250 4.290167 -1.290387 -10.724111 70.208954 7.984910 3.291135 68.758438 21.781843 -8.948706 -4.323556 4.731162 4.009578 -108.143738 48.335209 -1.797907 81.676979 5.823810 9.296834 20.229797 1.468967 -23.496897 -10.001634 -31.000412 -0.000605 81.998413 -4.998371 -2.002548 38.644920 7.982737 8.566736 
1.558935 23.983170 -5.433291 -17.996515 -0.000000 180.000000 2.388024 -0.574493 -0.186735 30.913914 -0.533100 -0.720221 -1.143070 0.000000 0.000000 -1.287612 0.000000 0.000000 6.249705 8.132629 -10.143005 -78.434402 -22.900282 7.422977 -58.595592 -18.282982 -8.832336 -0.390298 -7.906541 2.080974 4.309690 -1.683368 -12.163100 70.208954 7.984910 3.291135 68.758438 21.781843 -8.948705 -4.330088 3.735403 3.409700 -108.012741 48.097656 -1.461607 80.998856 5.732686 9.242577 20.761024 1.797422 -23.116880 -10.619450 -30.923651 0.004997 82.689400 -5.026226 -2.385998 38.607109 7.593311 8.498372 
1.558935 23.983170 -5.150479 -17.996515 -0.000000 180.000000 2.080277 -0.574446 -0.186802 31.836338 -0.533223 -0.720210 -1.714520 0.000000 0.000000 -1.930224 0.000000 0.000000 6.281798 8.235067 -11.677525 -78.434395 -22.900282 7.422976 -58.595585 -18.282978 -8.832335 -0.487116 -7.124560 1.513036 4.319345 -2.077454 -13.604984 70.208954 7.984910 3.291135 68.758438 21.781843 -8.948706 -4.326166 2.738499 2.809843 -107.884399 47.859573 -1.127624 80.320694 5.640893 9.189396 21.290392 2.129530 -22.739668 -11.236962 -30.846819 0.009630 83.380913 -5.049480 -2.769958 38.568863 7.203876 8.429798 
1.558935 23.983170 -4.867667 -17.996515 -0.000000 180.000000 1.772511 -0.574399 -0.186870 32.759300 -0.533346 -0.720201 -2.286097 0.000000 0.000000 -2.573019 0.000000 0.000000 6.316719 8.336782 -13.214993 -78.434402 -22.900282 7.422977 -58.595592 -18.282980 -8.832336 -0.591642 -6.343056 0.944310 4.319065 -2.472266 -15.049418 70.208954 7.984910 3.291135 68.758438 21.781843 -8.948706 -4.311787 1.740762 2.209769 -107.758690 47.620968 -0.795935 79.642494 5.548453 9.137301 21.817888 2.465226 -22.365320 -11.854132 -30.769915 0.013296 84.072884 -5.068126 -3.154339 38.530167 6.814446 8.361012 
1.558935 23.983170 -4.584854 -17.996515 -0.000000 180.000000 1.464728 -0.574353 -0.186938 33.682682 -0.533469 -0.720194 -2.857773 0.000000 0.000000 -3.215954 0.000000 0.000000 6.354444 8.437658 -14.754865 -78.434402 -22.900282 7.422977 -58.595592 -18.282980 -8.832336 -0.703868 -5.562222 0.374668 4.308802 -2.867419 -16.496054 70.208954 7.984910 3.291135 68.758438 21.781843 -8.948706 -4.286942 0.742508 1.609235 -107.635597 47.381863 -0.466507 78.964325 5.455381 9.086307 22.343475 2.804446 -21.993872 -12.470934 -30.692976 0.015998 84.765175 -5.082147 -3.539046 38.491028 6.425029 8.292007 
1.558935 23.983170 -4.302042 -17.996519 -0.000000 180.000000 1.156934 -0.574307 -0.187006 34.606373 -0.533592 -0.720189 -3.429521 0.000000 0.000000 -3.858992 0.000000 0.000000 6.394944 8.537585 -16.296598 -78.434402 -22.900280 7.422976 -58.595585 -18.282980 -8.832336 -0.823786 -4.782251 -0.196014 4.288526 -3.262526 -17.944536 70.208946 7.984909 3.291135 68.758438 21.781841 -8.948705 -4.251619 -0.255948 1.008001 -107.515076 47.142273 -0.139300 78.286201 5.361700 9.036419 22.867121 3.147120 -21.625370 -13.087324 -30.615995 0.017734 85.457726 -5.091538 -3.923987 38.451454 6.035637 8.222787 
1.558935 23.983170 -4.019230 -17.996515 -0.000000 180.000000 0.849135 -0.574261 -0.187075 35.530243 -0.533715 -0.720186 -4.001311 0.000000 0.000000 -4.502090 0.000000 0.000000 6.438182 8.636448 -17.839636 -78.434402 -22.900282 7.422977 -58.595592 -18.282980 -8.832336 -0.951388 -4.003340 -0.767861 4.258221 -3.657196 -19.394508 70.208954 7.984910 3.291135 68.758438 21.781843 -8.948706 -4.205793 -1.254288 0.405827 -107.397102 46.902229 0.185708 77.608200 5.267426 8.987652 23.388792 3.493181 -21.259846 -13.703286 -30.539013 0.018507 86.150406 -5.096294 -4.309068 38.411434 5.646279 8.153340 
1.558935 23.983170 -3.736418 -17.996515 -0.000000 180.000000 0.541332 -0.574215 -0.187143 36.454166 -0.533839 -0.720185 -4.573116 0.000000 0.000000 -5.145207 0.000000 0.000000 6.484121 8.734148 -19.383446 -78.434402 -22.900282 7.422977 -58.595592 -18.282980 -8.832336 -1.086671 -3.225681 -1.340997 4.217893 -4.051043 -20.845610 70.208954 7.984910 3.291135 68.758438 21.781843 -8.948706 -4.149440 -2.252196 -0.197530 -107.281616 46.661713 0.508555 76.930374 5.172581 8.940015 23.908463 3.842556 -20.897329 -14.318772 -30.462011 0.018319 86.843155 -5.096414 -4.694199 38.370956 5.256964 8.083665 
1.558935 23.983170 -3.453606 -17.996515 -0.000000 180.000000 0.233532 -0.574170 -0.187212 37.378029 -0.533962 -0.720186 -5.144906 0.000000 0.000000 -5.788305 0.000000 0.000000 6.532709 8.830566 -20.927448 -78.434402 -22.900282 7.422977 -58.595592 -18.282982 -8.832336 -1.229631 -2.449471 -1.915540 4.167562 -4.443677 -22.297483 70.208954 7.984910 3.291135 68.758438 21.781843 -8.948706 -4.082524 -3.249349 -0.802312 -107.168633 46.420776 0.829265 76.252739 5.077185 8.893516 24.426113 4.195179 -20.537872 -14.933758 -30.385023 0.017174 87.535858 -5.091896 -5.079284 38.330040 4.867704 8.013756 
1.558935 23.983170 -3.170794 -17.996515 -0.000000 180.000000 -0.074262 -0.574126 -0.187281 38.301712 -0.534086 -0.720189 -5.716653 0.000000 0.000000 -6.431344 0.000000 0.000000 6.583893 8.925606 -22.471102 -78.434402 -22.900284 7.422978 -58.595592 -18.282980 -8.832336 -1.380267 -1.674903 -2.491613 4.107271 -4.834711 -23.749756 70.208954 7.984910 3.291135 68.758438 21.781843 -8.948706 -4.005010 -4.245432 -1.408762 -107.058075 46.179405 1.147869 75.575348 4.981258 8.848162 24.941711 4.550975 -20.181498 -15.548202 -30.308052 0.015071 88.228394 -5.082743 -5.464231 38.288654 4.478507 7.943609 
1.558935 23.983170 -2.887981 -17.996515 -0.000000 180.000000 -0.382044 -0.574081 -0.187351 39.225101 -0.534209 -0.720194 -6.288330 0.000000 0.000000 -7.074279 0.000000 0.000000 6.637613 9.019164 -24.013851 -78.434402 -22.900282 7.422977 -58.595592 -18.282980 -8.832336 -1.538579 -0.902173 -3.069333 4.037074 -5.223763 -25.202072 70.208954 7.984910 3.291135 68.758438 21.781843 -8.948706 -3.916849 -5.240122 -2.017123 -106.949959 45.937630 1.464398 74.898262 4.884822 8.803967 25.455246 4.909875 -19.828243 -16.162085 -30.231129 0.012016 88.920700 -5.068959 -5.848948 38.246826 4.089385 7.873220 
1.558935 23.983170 -2.605169 -17.996515 -0.000000 180.000000 -0.689811 -0.574037 -0.187420 40.148067 -0.534332 -0.720201 -6.859908 0.000000 0.000000 -7.717076 0.000000 0.000000 6.693808 9.111145 -25.555140 -78.434402 -22.900282 7.422977 -58.595592 -18.282982 -8.832336 -1.704566 -0.131476 -3.648818 3.957050 -5.610455 -26.654053 70.208954 7.984910 3.291135 68.758438 21.781843 -8.948706 -3.817990 -6.233102 -2.627641 -106.844231 45.695461 1.778876 74.221519 4.787896 8.760934 25.966682 5.271801 -19.478136 -16.775364 -30.154243 0.008011 89.612656 -5.050552 -6.233338 38.204540 3.700347 7.802586 
1.558935 23.983170 -2.322357 -17.996515 -0.000000 180.000000 -0.997558 -0.573994 -0.187490 41.070496 -0.534455 -0.720210 -7.431355 0.000000 0.000000 -8.359684 0.000000 0.000000 6.752406 9.201455 -27.094418 -78.434402 -22.900282 7.422977 -58.595585 -18.282980 -8.832336 -1.878235 0.636995 -4.230186 3.867290 -5.994411 -28.105324 70.208954 7.984910 3.291135 68.758438 21.781843 -8.948706 -3.708379 -7.224052 -3.240562 -106.740860 45.452911 2.091338 73.545166 4.690500 8.719073 26.476006 5.636685 -19.131205 -17.388010 -30.077421 0.003059 90.304207 -5.027535 -6.617316 38.161804 3.311405 7.731701 
1.558935 23.983170 -2.039545 -17.996515 -0.000000 180.000000 -1.305280 -0.573951 -0.187560 41.992264 -0.534578 -0.720220 -8.002649 0.000000 0.000000 -9.002075 0.000000 0.000000 6.813332 9.290004 -28.631136 -78.434402 -22.900282 7.422977 -58.595585 -18.282980 -8.832336 -2.059586 1.403046 -4.813549 3.767904 -6.375266 -29.555519 70.208954 7.984910 3.291135 68.758438 21.781843 -8.948706 -3.587950 -8.212656 -3.856134 -106.639809 45.209991 2.401815 72.869232 4.592659 8.678391 26.983194 6.004447 -18.787474 -17.999994 -30.000673 -0.002834 90.995201 -4.999918 -7.000784 38.118595 2.922566 7.660561 
1.558935 23.983170 -2.284649 -17.996515 -0.000000 180.000000 -1.038589 -0.573988 -0.187500 41.193436 -0.534471 -0.720211 -7.507538 0.000000 0.000000 -8.445351 0.000000 0.000000 6.760396 9.213365 -27.299471 -78.434402 -22.900282 7.422977 -58.595592 -18.282980 -8.832336 -1.901971 0.739279 -4.307849 3.854592 -6.045378 -28.298754 70.208954 7.984910 3.291135 68.758438 21.781843 -8.948706 -3.692948 -7.356009 -3.322480 -106.727249 45.420544 2.132853 73.455009 4.677481 8.713581 26.543753 5.685553 -19.085184 -17.469645 -30.067179 0.002329 90.396362 -5.024117 -6.668475 38.156063 3.259553 7.722229 
1.558935 23.983170 -2.529753 -17.996515 -0.000000 180.000000 -0.771879 -0.574026 -0.187439 40.394108 -0.534365 -0.720203 -7.012304 0.000000 0.000000 -7.888453 0.000000 0.000000 6.709202 9.135396 -25.965834 -78.434402 -22.900282 7.422977 -58.595592 -18.282980 -8.832336 -1.750127 0.073675 -3.803661 3.934061 -5.713124 -27.041136 70.208954 7.984910 3.291135 68.758438 21.781843 -8.948706 -3.789815 -6.497567 -2.790842 -106.816437 45.630814 1.862394 74.041115 4.761968 8.749657 26.102703 5.368817 -19.385307 -16.938801 -30.133753 0.006784 89.797142 -5.044866 -6.335778 38.193188 3.596620 7.783708 
1.558935 23.983170 -2.774857 -17.996515 -0.000000 180.000000 -0.505153 -0.574064 -0.187379 39.594341 -0.534258 -0.720196 -6.516973 0.000000 0.000000 -7.331415 0.000000 0.000000 6.659800 9.056153 -24.630575 -78.434402 -22.900282 7.422977 -58.595592 -18.282980 -8.832336 -1.604052 -0.593640 -3.300909 4.006239 -5.378744 -25.782923 70.208954 7.984910 3.291135 68.758438 21.781843 -8.948706 -3.878592 -5.637537 -2.261058 -106.907379 45.840813 1.590433 74.627525 4.846107 8.786614 25.660074 5.054286 -19.687819 -16.407465 -30.200357 0.010527 89.197533 -5.062150 -6.002747 38.229969 3.933759 7.844996 
1.558935 23.983170 -3.019961 -17.996515 -0.000000 180.000000 -0.238414 -0.574102 -0.187318 38.794235 -0.534151 -0.720191 -6.021558 0.000000 0.000000 -6.774257 0.000000 0.000000 6.612233 8.975696 -23.294054 -78.434402 -22.900282 7.422977 -58.595592 -18.282982 -8.832336 -1.463745 -1.262540 -2.799518 4.071061 -5.042477 -24.524342 70.208954 7.984910 3.291135 68.758438 21.781843 -8.948706 -3.959318 -4.776125 -1.732967 -107.000130 46.050514 1.316941 75.214218 4.929888 8.824449 25.215851 4.742006 -19.992702 -15.875679 -30.267021 0.013560 88.597664 -5.075966 -5.669448 38.266403 4.270965 7.906098 
1.558935 23.983170 -3.265064 -17.996515 -0.000000 180.000000 0.028335 -0.574141 -0.187258 37.993851 -0.534045 -0.720188 -5.526076 0.000000 0.000000 -6.217005 0.000000 0.000000 6.566547 8.894086 -21.956627 -78.434402 -22.900282 7.422977 -58.595592 -18.282980 -8.832336 -1.329202 -1.932898 -2.299411 4.128472 -4.704568 -23.265644 70.208954 7.984910 3.291135 68.758438 21.781843 -8.948706 -4.032028 -3.913542 -1.206411 -107.094666 46.259911 1.041898 75.801125 5.013292 8.863153 24.770079 4.432028 -20.299946 -15.343451 -30.333714 0.015878 87.997566 -5.086308 -5.335937 38.302498 4.608232 7.967017 
